<?xml version="1.0" encoding="UTF-8"?>
<svg version="1.1" xmlns="http://www.w3.org/2000/svg" width="434" height="434">
<path d="M0 0 C143.22 0 286.44 0 434 0 C434 143.22 434 286.44 434 434 C290.78 434 147.56 434 0 434 C0 290.78 0 147.56 0 0 Z " fill="#245129" transform="translate(0,0)"/>
<path d="M0 0 C0.87615967 0.00821777 1.75231934 0.01643555 2.6550293 0.02490234 C25.1426511 0.40973054 43.17301768 8.68071591 59.7734375 23.62109375 C61.25 25.25 61.25 25.25 61.25 27.25 C61.80945313 27.01925781 62.36890625 26.78851563 62.9453125 26.55078125 C85.92354673 17.20432906 109.41282499 12.25333323 133.30273438 22.09570312 C142.21571494 25.96484031 150.07507803 30.63542847 157.25 37.25 C158.10207031 38.02214844 158.95414063 38.79429688 159.83203125 39.58984375 C174.89762502 53.88747622 184.654639 74.81055343 185.328125 95.66967773 C185.34773189 98.19725074 185.33773626 100.72249139 185.3125 103.25 C185.30798828 104.12011719 185.30347656 104.99023438 185.29882812 105.88671875 C185.2871736 108.00784293 185.26924357 110.1289311 185.25 112.25 C185.96800781 112.51683594 186.68601562 112.78367187 187.42578125 113.05859375 C206.119797 120.94472764 220.37091703 137.918594 228.25 156.25 C229.89842532 160.86265601 231.16249398 165.47642095 232.25 170.25 C232.47429687 171.16007813 232.69859375 172.07015625 232.9296875 173.0078125 C237.51137172 194.03334968 232.44186409 217.72670882 220.96875 235.78515625 C209.70729403 251.93510787 196.13335322 262.68796468 177.875 269.6875 C177.23353027 269.93459717 176.59206055 270.18169434 175.93115234 270.4362793 C157.48969651 277.11089654 134.05526843 274.01690446 116.66015625 266.03515625 C105.11021183 259.98896541 93.55999269 251.26276676 86.25 240.25 C86.25 239.59 86.25 238.93 86.25 238.25 C85.69763672 238.53198242 85.14527344 238.81396484 84.57617188 239.10449219 C61.73077182 250.65968418 39.53746336 257.05789917 14.296875 248.97753906 C-7.48040727 241.23704512 -24.5474383 225.9284063 -34.75 205.25 C-39.76180843 194.02563736 -43.06691 183.10346969 -42.80883789 170.76171875 C-42.40987915 160.85396151 -42.40987915 160.85396151 -45.97265625 151.94921875 C-48.79092733 149.76670621 -51.6615851 148.0219056 -54.75 146.25 C-65.6112163 136.26530291 -71.97135469 122.94580588 -76.75 109.25 C-77.09160156 108.3115625 -77.43320313 107.373125 -77.78515625 106.40625 C-83.89416143 86.63012161 -80.01304085 62.63505913 -70.83447266 44.43457031 C-60.29510897 24.93264125 -43.14496938 10.41143689 -22.234375 3.2578125 C-14.70730604 1.08070062 -7.85172918 -0.09017071 0 0 Z " fill="#569E40" transform="translate(146.75,79.75)"/>
<path d="M0 0 C1.14049805 0.00829834 2.28099609 0.01659668 3.45605469 0.02514648 C25.41650667 0.46230198 43.71400781 9.22749112 59.625 24.375 C75.89169263 41.51372151 84.00523719 64.52179258 83.59375 87.9765625 C82.55171025 111.53708135 71.48991951 133.00778628 54.625 149.125 C46.39255672 156.22849498 37.03025023 161.00583607 26.9375 164.875 C26.29603027 165.12209717 25.65456055 165.36919434 24.99365234 165.6237793 C6.55219651 172.29839654 -16.88223157 169.20440446 -34.27734375 161.22265625 C-46.53724001 154.80481823 -59.67456861 145.32235298 -65.6875 132.4375 C-64.93726563 131.86644531 -64.18703125 131.29539062 -63.4140625 130.70703125 C-51.83064386 121.53074621 -44.51448454 111.86124057 -38.65966797 98.33178711 C-36.26861245 93.05591046 -33.7185484 90.1577386 -28.80078125 86.97265625 C-23.40771852 83.05496003 -20.3797554 76.7394285 -18.6875 70.4375 C-17.63213541 58.88549004 -17.63213541 58.88549004 -21.2109375 48.1796875 C-25.10791918 43.5816615 -29.68595296 39.7718647 -34.6875 36.4375 C-35.8984375 33.96875 -35.8984375 33.96875 -37.0625 30.9375 C-39.31531838 25.26779296 -41.87449081 19.84805384 -44.6875 14.4375 C-31.33789126 4.62756024 -16.5087602 -0.15567364 0 0 Z " fill="#FEFEFE" transform="translate(297.6875,184.5625)"/>
<path d="M0 0 C0.87615967 0.00821777 1.75231934 0.01643555 2.6550293 0.02490234 C25.08048664 0.40866673 43.10385382 8.63627164 59.67578125 23.5234375 C61.25 25.25 61.25 25.25 62.25 28.25 C61.404375 28.8790625 60.55875 29.508125 59.6875 30.15625 C47.97468306 38.94951068 39.84679494 47.72935648 32.25 60.25 C33.58623413 60.2185791 33.58623413 60.2185791 34.94946289 60.18652344 C38.33238565 60.11735465 41.71453144 60.06772909 45.09790039 60.03027344 C46.5475671 60.01045658 47.99715728 59.98339465 49.4465332 59.94824219 C64.3614022 59.59620779 78.25313032 61.4914988 90.25 71.25 C92.82707985 73.74584091 95.242124 76.26902369 97.25 79.25 C97.25 79.91 97.25 80.57 97.25 81.25 C93.0649425 81.67519574 88.87709658 82.0598777 84.6875 82.4375 C82.91536133 82.61829102 82.91536133 82.61829102 81.10742188 82.80273438 C74.4329287 83.38231221 70.15143347 83.45274905 64.25 80.25 C59.98537298 79.11872355 55.71026583 79.03558325 51.32421875 78.93359375 C50.66087524 78.91494263 49.99753174 78.8962915 49.31408691 78.8770752 C46.85534958 78.80919465 44.39641067 78.74878091 41.9375 78.6875 C36.430625 78.543125 30.92375 78.39875 25.25 78.25 C25.25 93.76 25.25 109.27 25.25 125.25 C31.19 125.25 37.13 125.25 43.25 125.25 C43.806875 126.631875 44.36375 128.01375 44.9375 129.4375 C46.76780993 133.57841396 48.85525479 136.20343379 52.25 139.25 C53.24 140.57 54.23 141.89 55.25 143.25 C45.35 143.25 35.45 143.25 25.25 143.25 C25.25 154.47 25.25 165.69 25.25 177.25 C18.32 177.25 11.39 177.25 4.25 177.25 C4.25 148.87 4.25 120.49 4.25 91.25 C-17.56058045 105.79038697 -33.60527987 121.28509239 -39.75 147.25 C-39.95238281 148.03632813 -40.15476563 148.82265625 -40.36328125 149.6328125 C-40.84175192 151.50112655 -41.29860173 153.37496102 -41.75 155.25 C-46.16743367 153.82059276 -49.218106 151.43289085 -52.5625 148.3125 C-53.08875977 147.82160889 -53.61501953 147.33071777 -54.15722656 146.82495117 C-69.62702624 132.01983249 -79.69360999 110.26340856 -80.18701172 88.80957031 C-80.19113503 64.55622798 -74.0164174 43.44299382 -57.01953125 25.51953125 C-41.48326612 9.98326612 -22.32611589 -0.25639724 0 0 Z " fill="#FBFBFB" transform="translate(146.75,79.75)"/>
<path d="M0 0 C0 28.38 0 56.76 0 86 C6.93 86 13.86 86 21 86 C21 74.78 21 63.56 21 52 C25.82625 51.71125 30.6525 51.4225 35.625 51.125 C37.11596191 51.01816895 38.60692383 50.91133789 40.14306641 50.80126953 C48.86130275 50.40524695 54.6508964 51.57732786 62.65527344 55.46337891 C67.85382245 57.8516758 73.23686333 58.95081608 78.8125 60.125 C97.45616636 64.11599891 97.45616636 64.11599891 104 70.125 C104.556875 70.62257813 105.11375 71.12015625 105.6875 71.6328125 C107.37916666 73.39496527 107.98590181 74.49649309 108.0546875 76.953125 C107.60146679 82.74646804 106.44876887 85.9380806 102 90 C90.54954467 96.1493186 75.49640771 95.47927875 63.25 91.9375 C55.84104456 89.66374924 49.45240202 86.31403372 43 82 C42.01585567 83.91411557 41.03786651 85.8313967 40.0625 87.75 C39.51722656 88.81734375 38.97195312 89.8846875 38.41015625 90.984375 C37.28783725 93.38445885 36.49498341 95.41856752 36 98 C49.22539161 108.18145227 65.24681759 111.39462518 81.625 111.4375 C83.17574219 111.44330078 83.17574219 111.44330078 84.7578125 111.44921875 C94.12326357 111.31012789 102.29019948 109.31351107 111 106 C108.90884605 120.92066599 96.27761322 135.24279886 84.875 144.3125 C66.79730001 157.88845556 45.05859791 163.46611577 22.71240234 160.71875 C1.41328028 157.39179594 -17.95138853 145.02575674 -31 128 C-41.36670428 112.82018302 -47.62208415 95.17236359 -47.4375 76.75 C-47.42847656 75.65953369 -47.41945313 74.56906738 -47.41015625 73.44555664 C-46.91954232 50.41225475 -36.49895803 29.02181921 -20 13 C-16.12219048 9.81590415 -12.12195191 6.85922171 -8 4 C-6.93136719 3.25492188 -5.86273438 2.50984375 -4.76171875 1.7421875 C-2 0 -2 0 0 0 Z " fill="#4C969D" transform="translate(151,171)"/>
<path d="M0 0 C8.105625 -0.0928125 8.105625 -0.0928125 16.375 -0.1875 C18.05899902 -0.21481201 19.74299805 -0.24212402 21.47802734 -0.27026367 C28.64493671 -0.33728947 35.12985378 -0.28808647 41.94384766 2.25268555 C46.37190568 3.86207591 50.40125207 4.09380253 55.0859375 3.95703125 C72.99934798 3.58612002 86.80084001 4.7825467 103 13 C102.41347648 17.48993869 101.2356462 21.22543184 99.4375 25.375 C98.98246094 26.43460938 98.52742188 27.49421875 98.05859375 28.5859375 C97.70925781 29.38257813 97.35992187 30.17921875 97 31 C95.96166016 30.58427734 95.96166016 30.58427734 94.90234375 30.16015625 C93.94457031 29.77730469 92.98679687 29.39445312 92 29 C90.97003906 28.58621094 89.94007813 28.17242187 88.87890625 27.74609375 C87.78449219 27.31425781 86.69007813 26.88242188 85.5625 26.4375 C84.47066406 26.00308594 83.37882812 25.56867188 82.25390625 25.12109375 C76.13499467 23.01289732 70.0338026 22.74925196 63.625 22.4375 C62.37783203 22.37272461 62.37783203 22.37272461 61.10546875 22.30664062 C59.07046772 22.20138195 57.03525297 22.10026928 55 22 C55.02320313 22.59458008 55.04640625 23.18916016 55.0703125 23.80175781 C55.22175374 30.45165064 54.28275514 34.74065462 50 40 C47.47707044 42.00062251 44.88394367 43.57591864 42 45 C45.20746036 48.81340375 48.52079482 50.16722208 53.1875 51.5 C53.8880249 51.71084229 54.5885498 51.92168457 55.31030273 52.13891602 C60.35100092 53.62127665 65.43442977 54.80388319 70.5625 55.9375 C84.65673731 59.13208628 98.42319441 63.70638258 106.625 76.5625 C109.79354034 84.09155538 109.15133266 94.87410014 106.5 102.4375 C101.67556078 112.40465742 94.24047937 118.13787635 84 122 C76.41206223 124.53998158 69.4241517 125.52070794 61.4375 125.4375 C60.39609863 125.42920166 59.35469727 125.42090332 58.28173828 125.41235352 C43.5423774 125.09478256 29.49052583 122.171707 17 114 C16.01 112.68 15.02 111.36 14 110 C16.31 104.72 18.62 99.44 21 94 C22.77375 94.9075 24.5475 95.815 26.375 96.75 C41.60087946 104.34502693 57.13427214 109.27848108 74.171875 104.62890625 C78.81540022 103.0314542 82.73582223 101.52835555 85 97 C85.85927629 93.93700151 86.25431464 91.17893302 86 88 C81.04949594 79.2541095 70.8902587 77.5201986 61.80859375 74.98828125 C59.21779953 74.31600336 56.64556759 73.68449616 54.03515625 73.10546875 C41.88003981 70.37093589 28.73333795 66.32593183 20.75 56.125 C19 53 19 53 18 47 C12.06 47 6.12 47 0 47 C0 31.49 0 15.98 0 0 Z " fill="#060610" transform="translate(172,158)"/>
<path d="M0 0 C8.105625 -0.0928125 8.105625 -0.0928125 16.375 -0.1875 C18.05899902 -0.21481201 19.74299805 -0.24212402 21.47802734 -0.27026367 C40.22623595 -0.44992366 40.22623595 -0.44992366 45.75537109 4.60473633 C46.3714624 5.29539185 46.3714624 5.29539185 47 6 C46.3709375 6.15855469 45.741875 6.31710938 45.09375 6.48046875 C38.98680469 8.14516318 34.1495612 10.33988587 29 14 C28.113125 14.5775 27.22625 15.155 26.3125 15.75 C21.40472848 20.52512905 18.04488095 27.14726202 17.68359375 34.01171875 C17.64548584 34.69451904 17.60737793 35.37731934 17.56811523 36.08081055 C17.50346069 37.37112183 17.50346069 37.37112183 17.4375 38.6875 C17.293125 41.430625 17.14875 44.17375 17 47 C11.39 47 5.78 47 0 47 C0 31.49 0 15.98 0 0 Z " fill="#4D969C" transform="translate(172,158)"/>
<path d="M0 0 C2.91672884 -0.02700675 5.83320677 -0.04684237 8.75 -0.0625 C9.575 -0.07087891 10.4 -0.07925781 11.25 -0.08789062 C12.04921875 -0.09111328 12.8484375 -0.09433594 13.671875 -0.09765625 C14.4050293 -0.10289307 15.13818359 -0.10812988 15.89355469 -0.11352539 C18.0461849 0.0024891 19.9314135 0.40926729 22 1 C22.6896587 13.23505619 19.05646803 21.19580834 11.6328125 30.76171875 C8.65274433 33.0217226 5.4555114 32.00823781 1.92578125 31.578125 C-4.35891665 30.33628883 -9.85862754 28.04167082 -14 23 C-12.87926138 22.16094435 -11.75325453 21.32892169 -10.625 20.5 C-9.99851563 20.0359375 -9.37203125 19.571875 -8.7265625 19.09375 C-7 18 -7 18 -5 18 C-4.566875 16.88625 -4.566875 16.88625 -4.125 15.75 C-3 13 -3 13 -1.96875 11.125 C-0.89103379 8.76097734 -0.60264981 6.83003113 -0.375 4.25 C-0.25 2.83333333 -0.125 1.41666667 0 0 Z " fill="#F2F3F3" transform="translate(227,180)"/>
<path d="M0 0 C12.25041736 18.37562604 12.25041736 18.37562604 15 27 C14.67 27.99 14.34 28.98 14 30 C13.06800781 29.67386719 12.13601563 29.34773438 11.17578125 29.01171875 C2.85651308 26.14501062 -5.37330732 23.78934772 -14 22 C-13.23945313 21.42636719 -12.47890625 20.85273438 -11.6953125 20.26171875 C-5.33747151 14.92666088 -2.12555519 7.88692845 0 0 Z " fill="#4D969C" transform="translate(248,191)"/>
<path d="M0 0 C4.51656908 -0.07490483 9.03279623 -0.12895323 13.54980469 -0.16479492 C15.08209543 -0.17975744 16.61434429 -0.20013497 18.14648438 -0.22631836 C39.08524068 -0.57484204 39.08524068 -0.57484204 44.75732422 4.60473633 C45.16740723 5.06517334 45.57749023 5.52561035 46 6 C38.78472446 8.46698759 34.26203193 9.42067731 27 7 C21.16004148 5.91194689 15.47611177 5.88215302 9.5625 5.9375 C8.64017578 5.94201172 7.71785156 5.94652344 6.76757812 5.95117188 C4.51164952 5.96286062 2.25586033 5.97924545 0 6 C0 4.02 0 2.04 0 0 Z " fill="#599F46" transform="translate(173,158)"/>
<path d="M0 0 C0.6239202 6.86312215 -0.65963567 11.55123714 -5 17 C-7.93374068 19.41206212 -11.08314857 22 -15 22 C-17.48125769 18.27811347 -17.6394573 15.31223771 -17 11 C-14.01608862 4.65918832 -7.43819636 -1.16221818 0 0 Z " fill="#4B939A" transform="translate(227,181)"/>
</svg>
